<svg id="Icon_ionic-ios-cart" data-name="Icon ionic-ios-cart" xmlns="http://www.w3.org/2000/svg" width="24.239" height="21" viewBox="0 0 24.239 21">
  <path id="Path_6" data-name="Path 6" d="M12.938,29.813a1.688,1.688,0,1,1-1.687-1.688,1.688,1.688,0,0,1,1.688,1.688Z" transform="translate(-4.577 -10.5)" fill="#fb752c"/>
  <path id="Path_7" data-name="Path 7" d="M28.723,29.813a1.687,1.687,0,1,1-1.687-1.688,1.687,1.687,0,0,1,1.687,1.688Z" transform="translate(-8.382 -10.5)" fill="#fb752c"/>
  <path id="Path_8" data-name="Path 8" d="M27.613,8.013a.336.336,0,0,0-.3-.216L8.325,6.173a.6.6,0,0,1-.437-.242,5.235,5.235,0,0,0-.711-.959c-.449-.484-1.294-.469-2.844-.479-.525-.005-.95.268-.95.727s.4.727.909.727a8.737,8.737,0,0,1,1.516.1c.274.072.5.469.577.814a.018.018,0,0,0,.006.015c.012.062.117.526.117.531L8.838,18.311a3.772,3.772,0,0,0,.845,1.84,2.444,2.444,0,0,0,1.918.835H25.392a.793.793,0,0,0,.839-.691.765.765,0,0,0-.816-.752H11.589a.739.739,0,0,1-.484-.144,2.217,2.217,0,0,1-.67-1.34l-.251-1.222a.029.029,0,0,1,.023-.031l16.187-2.422a.32.32,0,0,0,.286-.268l.933-5.968A.261.261,0,0,0,27.613,8.013Z" transform="translate(-3.382 -4.493)" fill="#fb752c"/>
</svg>
